<svg width="81" height="80" viewBox="0 0 81 80" fill="none" xmlns="http://www.w3.org/2000/svg"> <path d="M14.5 75.2C17 72.7 19.8 71 23.3 70.5C20.9 68.5 18.5 66.8 16.4 64.7C14.7 62.9 12.9 61.9 10.3 61.8C5.7 61.6 2.9 58.6 1.2 54.5C0.8 53.4 0.5 52.2 0 50.8C2.3 50.8 4.4 50.8 6.6 50.8C6.2 49 5.6 47.3 5.4 45.5C5.1 43 5.1 40.4 4.8 37.8C4.8 37.3 4.6 36.6 4.2 36.3C-0.5 32.9 -0.7 27.2 1.5 22C3.3 23 5.1 23.9 7 24.9C7.1 24.7 7.3 24.5 7.4 24.3C8.6 21.6 9.9 18.9 11.1 16.1C11.3 15.7 11.4 15.1 11.2 14.7C8.6 10.1 9.7 5.9 12.7 1.9C13.2 1.2 13.8 0.6 14.3 0C19.2 3.3 20.5 10.5 17.1 15.5C14.2 19.8 12.1 24.5 10.8 29.5V29.6C10.3 37.3 9.4 44.8 12.7 52.3C15.3 56.7 18.5 60.5 22.6 63.6C27.9 67.7 33.8 70.8 39.6 74C39.9 74.2 40.5 74.2 40.8 74.1C47.5 70.4 54.2 66.9 60 61.9C66.6 56.1 70.5 49 70.8 40.1C70.8 39.2 69.4 28.7 69 27.4C67.7 23.3 65.9 19.3 63.4 15.8C60.4 11.5 60.6 7 63.9 2.4C64.5 1.6 65.1 0.9 65.8 0.1C70.1 3.9 72 9.5 69.3 14.2C68.8 15 68.9 15.7 69.3 16.5C70.5 18.9 71.6 21.4 72.7 23.9C72.9 24.3 73 24.6 73.2 25C75.1 24 76.8 23 78.9 21.9C79.2 22.9 79.5 23.7 79.7 24.6C80.8 29.2 80.1 33.3 76 36.3C75.7 36.5 75.5 37 75.5 37.3C75.7 41.8 75 46.2 73.6 50.4C73.6 50.5 73.6 50.6 73.7 50.8C75.8 50.8 77.8 50.8 79.9 50.8C80.1 55.9 76 60.8 70.9 61.7C70.2 61.8 69.4 62 68.7 61.9C67.1 61.7 66.1 62.5 64.9 63.5C62.8 65.5 60.4 67.3 58.1 69.2C57.7 69.5 57.3 69.8 56.6 70.3C60.4 70.8 63.3 72.5 65.7 74.9C62.7 79.6 55.8 81 50.9 78C50 77.5 49.2 76.9 48.5 76.2C47.9 75.7 47.4 75.6 46.7 76C44.8 77.1 42.8 78.1 40.9 79.2C40.3 79.6 39.8 79.5 39.2 79.2C37.3 78.1 35.3 77.1 33.4 76C32.7 75.6 32.2 75.6 31.7 76.2C31.4 76.6 30.9 76.8 30.5 77.1C25.2 81.3 19.7 80.6 14.5 75.2ZM32.5 22.5C28.9 25.1 24.7 26 20.3 25.9C19.6 25.9 19 25.9 19 26.9C19.1 31.8 18.9 36.7 19.2 41.6C19.8 52.8 28.6 63.1 39.5 65.6C39.9 65.7 40.3 65.7 40.7 65.6C51.7 63.2 60.6 52.6 61.1 41.3C61.3 36.5 61.2 31.7 61.2 26.8C61.2 26.5 61.1 26.3 61 25.9C60.4 25.9 59.9 25.9 59.3 25.9C53.6 25.9 48.7 24.1 44.6 20.1C43.1 18.7 41.7 17.1 39.9 15.2C39.5 16 34.7 20.9 32.5 22.5ZM37.7 43.7C41.1 40.3 44.3 36.9 47.6 33.7C48.9 34.9 49.9 36 50.9 36.9C46.5 41.3 42.1 45.6 37.8 49.9C35.2 47.2 32.4 44.4 29.7 41.7C30.5 40.9 31.6 39.8 32.8 38.6C34.3 40.1 36 41.9 37.7 43.7Z" fill="#D81921"/> </svg>
