<svg width="80" height="80" viewBox="0 0 80 80" fill="none" xmlns="http://www.w3.org/2000/svg"> <path d="M40 0C17.91 0 0 17.91 0 40C0 62.09 17.91 80 40 80C45.78 80 51.27 78.76 56.23 76.56V72.67C52.56 72.4 50.22 70.21 49.5 66.42L52.3 65.03C53.17 68.5 54.64 69.94 57.4 69.94C60.12 69.94 62.12 68.02 62.12 65.37C62.12 64.2 61.63 63.02 60.91 62.38C60.11 61.66 58.6 60.9 56.14 60.03C53.45 59.13 52.74 58.71 51.82 57.8C50.61 56.63 49.97 55.01 49.97 53.23C49.97 49.6 52.43 46.96 56.21 46.39V43.36H58.22V46.39C60.98 46.58 63.4 48.54 64.11 51.26L61.39 52.51C60.37 49.98 59.16 48.96 57.08 48.96C54.92 48.96 53.25 50.63 53.25 52.89C53.25 53.98 53.71 55.08 54.43 55.8C55.03 56.37 56.2 56.9 59.12 57.92C61.89 58.9 63.24 59.67 64.11 61.02C64.91 62.12 65.36 63.55 65.36 65.03C65.36 69.3 62.49 72.37 58.22 72.67V75.6C71.16 68.96 80 55.52 80 40C80 17.91 62.09 0 40 0ZM25.66 8.89C30.45 8.89 34.33 12.77 34.33 17.56C34.33 22.35 30.45 26.23 25.66 26.23C20.87 26.23 16.99 22.35 16.99 17.56C16.99 12.77 20.87 8.89 25.66 8.89ZM40 73.66C21.44 73.66 6.34 58.56 6.34 40C6.34 33.54 8.18 27.26 11.65 21.84L13.59 23.08C10.35 28.13 8.64 33.98 8.64 40C8.64 57.29 22.71 71.36 40 71.36C41.72 71.36 43.45 71.22 45.13 70.94L45.5 73.21C43.69 73.51 41.84 73.66 40 73.66ZM67.75 54.62C70.11 50.15 71.36 45.09 71.36 40C71.36 22.71 57.29 8.64 40 8.64C38.91 8.64 37.82 8.7 36.74 8.81L36.5 6.52C37.65 6.4 38.83 6.34 40 6.34C58.56 6.34 73.66 21.44 73.66 40C73.66 45.46 72.32 50.89 69.78 55.7L67.75 54.62Z" fill="#D81921"/> </svg>
